<svg width="593" height="232" viewBox="0 0 593 232" fill="none" xmlns="http://www.w3.org/2000/svg">
<path id="cluster" d="M63.224 145.344C57.912 145.344 52.984 144.512 48.44 142.848C43.96 141.12 40.056 138.688 36.728 135.552C33.464 132.416 30.904 128.736 29.048 124.512C27.192 120.224 26.264 115.52 26.264 110.4C26.264 105.28 27.192 100.608 29.048 96.384C30.904 92.096 33.464 88.384 36.728 85.248C40.056 82.112 43.96 79.712 48.44 78.048C52.984 76.32 57.912 75.456 63.224 75.456C69.432 75.456 74.968 76.544 79.832 78.72C84.76 80.896 88.856 84.032 92.12 88.128L80.024 99.072C77.848 96.512 75.448 94.56 72.824 93.216C70.264 91.872 67.384 91.2 64.184 91.2C61.432 91.2 58.904 91.648 56.6 92.544C54.296 93.44 52.312 94.752 50.648 96.48C49.048 98.144 47.768 100.16 46.808 102.528C45.912 104.896 45.464 107.52 45.464 110.4C45.464 113.28 45.912 115.904 46.808 118.272C47.768 120.64 49.048 122.688 50.648 124.416C52.312 126.08 54.296 127.36 56.6 128.256C58.904 129.152 61.432 129.6 64.184 129.6C67.384 129.6 70.264 128.928 72.824 127.584C75.448 126.24 77.848 124.288 80.024 121.728L92.12 132.672C88.856 136.704 84.76 139.84 79.832 142.08C74.968 144.256 69.432 145.344 63.224 145.344ZM100.595 144V76.8H119.603V128.928H151.667V144H100.595ZM189.541 145.344C179.621 145.344 171.877 142.624 166.309 137.184C160.741 131.744 157.957 124.032 157.957 114.048V76.8H176.965V113.472C176.965 119.232 178.085 123.36 180.325 125.856C182.629 128.352 185.765 129.6 189.733 129.6C193.701 129.6 196.805 128.352 199.045 125.856C201.285 123.36 202.405 119.232 202.405 113.472V76.8H221.125V114.048C221.125 124.032 218.341 131.744 212.773 137.184C207.205 142.624 199.461 145.344 189.541 145.344ZM257.617 145.344C252.113 145.344 246.801 144.672 241.681 143.328C236.625 141.92 232.497 140.128 229.297 137.952L235.537 123.936C238.545 125.856 242.001 127.456 245.905 128.736C249.873 129.952 253.809 130.56 257.713 130.56C260.337 130.56 262.449 130.336 264.049 129.888C265.649 129.376 266.801 128.736 267.505 127.968C268.273 127.136 268.657 126.176 268.657 125.088C268.657 123.552 267.953 122.336 266.545 121.44C265.137 120.544 263.313 119.808 261.073 119.232C258.833 118.656 256.337 118.08 253.585 117.504C250.897 116.928 248.177 116.192 245.425 115.296C242.737 114.4 240.273 113.248 238.033 111.84C235.793 110.368 233.969 108.48 232.561 106.176C231.153 103.808 230.449 100.832 230.449 97.248C230.449 93.216 231.537 89.568 233.713 86.304C235.953 83.04 239.281 80.416 243.697 78.432C248.113 76.448 253.617 75.456 260.209 75.456C264.625 75.456 268.945 75.968 273.169 76.992C277.457 77.952 281.265 79.392 284.593 81.312L278.737 95.424C275.537 93.696 272.369 92.416 269.233 91.584C266.097 90.688 263.057 90.24 260.113 90.24C257.489 90.24 255.377 90.528 253.777 91.104C252.177 91.616 251.025 92.32 250.321 93.216C249.617 94.112 249.265 95.136 249.265 96.288C249.265 97.76 249.937 98.944 251.281 99.84C252.689 100.672 254.513 101.376 256.753 101.952C259.057 102.464 261.553 103.008 264.241 103.584C266.993 104.16 269.713 104.896 272.401 105.792C275.153 106.624 277.649 107.776 279.889 109.248C282.129 110.656 283.921 112.544 285.265 114.912C286.673 117.216 287.377 120.128 287.377 123.648C287.377 127.552 286.257 131.168 284.017 134.496C281.841 137.76 278.545 140.384 274.129 142.368C269.777 144.352 264.273 145.344 257.617 145.344ZM309.524 144V91.872H288.884V76.8H349.076V91.872H328.532V144H309.524ZM373.63 102.816H404.83V117.024H373.63V102.816ZM374.974 129.312H410.11V144H356.158V76.8H408.862V91.488H374.974V129.312ZM420.658 144V76.8H451.378C457.522 76.8 462.802 77.792 467.218 79.776C471.698 81.76 475.154 84.64 477.586 88.416C480.018 92.128 481.234 96.544 481.234 101.664C481.234 106.72 480.018 111.104 477.586 114.816C475.154 118.464 471.698 121.28 467.218 123.264C462.802 125.184 457.522 126.144 451.378 126.144H431.218L439.666 118.176V144H420.658ZM462.226 144L445.522 119.52H465.778L482.578 144H462.226ZM439.666 120.192L431.218 111.456H450.226C454.194 111.456 457.138 110.592 459.058 108.864C461.042 107.136 462.034 104.736 462.034 101.664C462.034 98.528 461.042 96.096 459.058 94.368C457.138 92.64 454.194 91.776 450.226 91.776H431.218L439.666 83.04V120.192Z" fill="#FF0053"/>
<g id="SVGRepo_iconCarrier">
<path id="Vector" d="M554.74 83.9882C552.834 84.0459 551.071 84.6233 549.575 85.5891L538.239 74.2775C540.463 71.4063 541.867 67.774 542.031 63.8162L550.077 62.9921C551.23 65.9106 553.972 67.9315 557.175 67.9315C561.392 67.9315 564.81 64.4304 564.81 60.1104C564.81 55.7905 561.392 52.2894 557.175 52.2894C553.336 52.2894 550.164 55.1868 549.621 58.9609L541.467 59.6328C540.32 53.6699 536.481 48.8198 531.331 46.4L532.909 41.9961H534.242C539.874 41.9541 544.419 37.2719 544.419 31.498C544.419 25.6979 539.833 21 534.17 21C528.507 21 523.921 25.6979 523.921 31.498C523.921 35.3928 525.991 38.7942 529.066 40.6051L527.682 45.093C526.519 44.8095 525.186 44.6521 523.818 44.6521C519.565 44.6521 515.67 46.2058 512.641 48.7935L497.298 33.0255C498.02 31.8497 498.451 30.4167 498.451 28.8788C498.451 24.5326 495.007 21.0052 490.764 21.0052C486.521 21.0052 483.077 24.5326 483.077 28.8788C483.077 33.1987 486.475 36.7103 490.682 36.7523C492.122 36.747 493.47 36.3376 494.613 35.629L509.951 51.397C507.522 54.4835 506.056 58.4517 506.056 62.7769C506.056 62.8557 506.056 62.9344 506.056 63.0131C506.056 63.3176 506.056 63.58 506.056 63.8425L502.674 64.4199C501.07 60.6406 497.452 58.0476 493.249 58.0476C487.587 58.0476 483 62.7454 483 68.5456C483 74.3457 487.587 79.0436 493.249 79.0436C498.912 79.0436 503.499 74.3457 503.499 68.5456C503.499 68.4406 503.499 68.3409 503.494 68.2359L506.722 67.7267C507.962 72.1517 510.658 75.7997 514.235 78.1828L511.386 84.4186C510.561 84.1614 509.607 84.0092 508.623 83.9987C508.593 83.9987 508.562 83.9987 508.536 83.9987C502.874 83.9987 498.287 88.6966 498.287 94.4967C498.287 100.297 502.874 104.995 508.536 104.995C514.199 104.995 518.786 100.297 518.786 94.4967C518.786 91.1373 517.243 88.1402 514.845 86.219L517.745 80.1669C519.611 80.9333 521.778 81.3794 524.044 81.3794C528.384 81.3794 532.351 79.747 535.4 77.0542L546.551 88.2032C545.27 89.9353 544.501 92.1294 544.501 94.502C544.501 100.302 549.088 105 554.751 105C560.413 105 565 100.302 565 94.502C565 88.7018 560.413 84.0039 554.751 84.0039L554.74 83.9882ZM508.618 99.7352C505.789 99.7352 503.494 97.3837 503.494 94.4862C503.494 91.5888 505.789 89.2372 508.618 89.2372C511.447 89.2372 513.743 91.5888 513.743 94.4862C513.743 97.3837 511.447 99.7352 508.618 99.7352ZM523.992 76.1147C516.915 76.1147 511.181 70.241 511.181 62.9921C511.181 55.7432 516.915 49.8696 523.992 49.8696C531.069 49.8696 536.804 55.7432 536.804 62.9921C536.804 70.241 531.069 76.1147 523.992 76.1147Z" fill="#FE0052"/>
</g>
<g id="SVGRepo_iconCarrier_2">
<path id="Vector_2" d="M553.74 81.9882C551.834 82.0459 550.071 82.6233 548.575 83.5891L537.239 72.2775C539.463 69.4063 540.867 65.774 541.031 61.8162L549.077 60.9921C550.23 63.9106 552.972 65.9315 556.175 65.9315C560.392 65.9315 563.81 62.4304 563.81 58.1104C563.81 53.7905 560.392 50.2894 556.175 50.2894C552.336 50.2894 549.164 53.1868 548.621 56.9609L540.467 57.6328C539.32 51.6699 535.481 46.8198 530.331 44.4L531.909 39.9961H533.242C538.874 39.9541 543.419 35.2719 543.419 29.498C543.419 23.6979 538.833 19 533.17 19C527.507 19 522.921 23.6979 522.921 29.498C522.921 33.3928 524.991 36.7942 528.066 38.6051L526.682 43.093C525.519 42.8095 524.186 42.6521 522.818 42.6521C518.565 42.6521 514.67 44.2058 511.641 46.7935L496.298 31.0255C497.02 29.8497 497.451 28.4167 497.451 26.8788C497.451 22.5326 494.007 19.0052 489.764 19.0052C485.521 19.0052 482.077 22.5326 482.077 26.8788C482.077 31.1987 485.475 34.7103 489.682 34.7523C491.122 34.747 492.47 34.3376 493.613 33.629L508.951 49.397C506.522 52.4835 505.056 56.4517 505.056 60.7769C505.056 60.8557 505.056 60.9344 505.056 61.0131C505.056 61.3176 505.056 61.58 505.056 61.8425L501.674 62.4199C500.07 58.6406 496.452 56.0476 492.249 56.0476C486.587 56.0476 482 60.7454 482 66.5456C482 72.3457 486.587 77.0436 492.249 77.0436C497.912 77.0436 502.499 72.3457 502.499 66.5456C502.499 66.4406 502.499 66.3409 502.494 66.2359L505.722 65.7267C506.962 70.1517 509.658 73.7997 513.235 76.1828L510.386 82.4186C509.561 82.1614 508.607 82.0092 507.623 81.9987C507.593 81.9987 507.562 81.9987 507.536 81.9987C501.874 81.9987 497.287 86.6966 497.287 92.4967C497.287 98.2969 501.874 102.995 507.536 102.995C513.199 102.995 517.786 98.2969 517.786 92.4967C517.786 89.1373 516.243 86.1402 513.845 84.219L516.745 78.1669C518.611 78.9333 520.778 79.3794 523.044 79.3794C527.384 79.3794 531.351 77.747 534.4 75.0542L545.551 86.2032C544.27 87.9353 543.501 90.1294 543.501 92.502C543.501 98.3021 548.088 103 553.751 103C559.413 103 564 98.3021 564 92.502C564 86.7018 559.413 82.0039 553.751 82.0039L553.74 81.9882ZM507.618 97.7352C504.789 97.7352 502.494 95.3837 502.494 92.4862C502.494 89.5888 504.789 87.2372 507.618 87.2372C510.447 87.2372 512.743 89.5888 512.743 92.4862C512.743 95.3837 510.447 97.7352 507.618 97.7352ZM522.992 74.1147C515.915 74.1147 510.181 68.241 510.181 60.9921C510.181 53.7432 515.915 47.8696 522.992 47.8696C530.069 47.8696 535.804 53.7432 535.804 60.9921C535.804 68.241 530.069 74.1147 522.992 74.1147Z" fill="#CACACA"/>
</g>
<g id="lorens group">
<path id="lorens" d="M157.36 231V197.4H166.864V223.464H182.896V231H157.36ZM199.187 231.432C196.339 231.432 193.811 230.856 191.603 229.704C189.395 228.552 187.651 226.968 186.371 224.952C185.123 222.904 184.499 220.568 184.499 217.944C184.499 215.32 185.123 213 186.371 210.984C187.651 208.968 189.395 207.4 191.603 206.28C193.811 205.128 196.339 204.552 199.187 204.552C202.035 204.552 204.563 205.128 206.771 206.28C209.011 207.4 210.755 208.968 212.003 210.984C213.251 213 213.875 215.32 213.875 217.944C213.875 220.568 213.251 222.904 212.003 224.952C210.755 226.968 209.011 228.552 206.771 229.704C204.563 230.856 202.035 231.432 199.187 231.432ZM199.187 224.184C200.243 224.184 201.171 223.944 201.971 223.464C202.803 222.984 203.459 222.28 203.939 221.352C204.419 220.392 204.659 219.256 204.659 217.944C204.659 216.632 204.419 215.528 203.939 214.632C203.459 213.704 202.803 213 201.971 212.52C201.171 212.04 200.243 211.8 199.187 211.8C198.163 211.8 197.235 212.04 196.403 212.52C195.603 213 194.947 213.704 194.435 214.632C193.955 215.528 193.715 216.632 193.715 217.944C193.715 219.256 193.955 220.392 194.435 221.352C194.947 222.28 195.603 222.984 196.403 223.464C197.235 223.944 198.163 224.184 199.187 224.184ZM218.1 231V204.984H226.788V212.568L225.492 210.408C226.26 208.456 227.508 207 229.236 206.04C230.964 205.048 233.06 204.552 235.524 204.552V212.76C235.108 212.696 234.74 212.664 234.42 212.664C234.132 212.632 233.812 212.616 233.46 212.616C231.604 212.616 230.1 213.128 228.948 214.152C227.796 215.144 227.22 216.776 227.22 219.048V231H218.1ZM252.685 231.432C249.613 231.432 246.925 230.856 244.621 229.704C242.349 228.52 240.573 226.92 239.293 224.904C238.045 222.856 237.421 220.536 237.421 217.944C237.421 215.352 238.029 213.048 239.245 211.032C240.493 208.984 242.205 207.4 244.381 206.28C246.557 205.128 249.005 204.552 251.725 204.552C254.285 204.552 256.621 205.08 258.733 206.136C260.845 207.16 262.525 208.68 263.773 210.696C265.021 212.712 265.645 215.16 265.645 218.04C265.645 218.36 265.629 218.728 265.597 219.144C265.565 219.56 265.533 219.944 265.501 220.296H244.909V215.496H260.653L257.197 216.84C257.229 215.656 257.005 214.632 256.525 213.768C256.077 212.904 255.437 212.232 254.605 211.752C253.805 211.272 252.861 211.032 251.773 211.032C250.685 211.032 249.725 211.272 248.893 211.752C248.093 212.232 247.469 212.92 247.021 213.816C246.573 214.68 246.349 215.704 246.349 216.888V218.28C246.349 219.56 246.605 220.664 247.117 221.592C247.661 222.52 248.429 223.24 249.421 223.752C250.413 224.232 251.597 224.472 252.973 224.472C254.253 224.472 255.341 224.296 256.237 223.944C257.165 223.56 258.077 222.984 258.973 222.216L263.773 227.208C262.525 228.584 260.989 229.64 259.165 230.376C257.341 231.08 255.181 231.432 252.685 231.432ZM286.794 204.552C288.81 204.552 290.634 204.968 292.266 205.8C293.898 206.6 295.178 207.848 296.106 209.544C297.066 211.24 297.546 213.432 297.546 216.12V231H288.426V217.608C288.426 215.752 288.042 214.408 287.274 213.576C286.538 212.712 285.498 212.28 284.154 212.28C283.194 212.28 282.314 212.504 281.514 212.952C280.714 213.368 280.09 214.024 279.642 214.92C279.194 215.816 278.97 216.984 278.97 218.424V231H269.85V204.984H278.538V212.376L276.858 210.216C277.85 208.328 279.21 206.92 280.938 205.992C282.666 205.032 284.618 204.552 286.794 204.552ZM312.728 231.432C310.52 231.432 308.36 231.176 306.248 230.664C304.168 230.152 302.488 229.512 301.208 228.744L303.944 222.504C305.16 223.24 306.584 223.832 308.216 224.28C309.848 224.696 311.448 224.904 313.016 224.904C314.552 224.904 315.608 224.744 316.184 224.424C316.792 224.104 317.096 223.672 317.096 223.128C317.096 222.616 316.808 222.248 316.232 222.024C315.688 221.768 314.952 221.576 314.024 221.448C313.128 221.32 312.136 221.176 311.048 221.016C309.96 220.856 308.856 220.648 307.736 220.392C306.648 220.104 305.64 219.688 304.712 219.144C303.816 218.568 303.096 217.8 302.552 216.84C302.008 215.88 301.736 214.664 301.736 213.192C301.736 211.528 302.216 210.056 303.176 208.776C304.168 207.464 305.608 206.44 307.496 205.704C309.384 204.936 311.688 204.552 314.408 204.552C316.232 204.552 318.072 204.744 319.928 205.128C321.816 205.48 323.4 206.024 324.68 206.76L321.944 212.952C320.664 212.216 319.384 211.72 318.104 211.464C316.824 211.176 315.608 211.032 314.456 211.032C312.92 211.032 311.832 211.208 311.192 211.56C310.584 211.912 310.28 212.344 310.28 212.856C310.28 213.368 310.552 213.768 311.096 214.056C311.64 214.312 312.36 214.52 313.256 214.68C314.184 214.808 315.192 214.952 316.28 215.112C317.368 215.24 318.456 215.448 319.544 215.736C320.664 216.024 321.672 216.456 322.568 217.032C323.496 217.576 324.232 218.328 324.776 219.288C325.32 220.216 325.592 221.416 325.592 222.888C325.592 224.488 325.096 225.928 324.104 227.208C323.144 228.488 321.704 229.512 319.784 230.28C317.896 231.048 315.544 231.432 312.728 231.432ZM360.867 231.672C358.179 231.672 355.699 231.24 353.427 230.376C351.155 229.512 349.171 228.296 347.475 226.728C345.811 225.128 344.515 223.272 343.587 221.16C342.659 219.048 342.195 216.728 342.195 214.2C342.195 211.672 342.659 209.352 343.587 207.24C344.515 205.128 345.811 203.288 347.475 201.72C349.171 200.12 351.155 198.888 353.427 198.024C355.699 197.16 358.179 196.728 360.867 196.728C363.587 196.728 366.067 197.16 368.307 198.024C370.579 198.888 372.547 200.12 374.211 201.72C375.875 203.288 377.171 205.128 378.099 207.24C379.059 209.352 379.539 211.672 379.539 214.2C379.539 216.728 379.059 219.064 378.099 221.208C377.171 223.32 375.875 225.16 374.211 226.728C372.547 228.296 370.579 229.512 368.307 230.376C366.067 231.24 363.587 231.672 360.867 231.672ZM360.867 223.8C362.147 223.8 363.331 223.576 364.419 223.128C365.539 222.68 366.499 222.04 367.299 221.208C368.131 220.344 368.771 219.32 369.219 218.136C369.699 216.952 369.939 215.64 369.939 214.2C369.939 212.728 369.699 211.416 369.219 210.264C368.771 209.08 368.131 208.072 367.299 207.24C366.499 206.376 365.539 205.72 364.419 205.272C363.331 204.824 362.147 204.6 360.867 204.6C359.587 204.6 358.387 204.824 357.267 205.272C356.179 205.72 355.219 206.376 354.387 207.24C353.587 208.072 352.947 209.08 352.467 210.264C352.019 211.416 351.795 212.728 351.795 214.2C351.795 215.64 352.019 216.952 352.467 218.136C352.947 219.32 353.587 220.344 354.387 221.208C355.219 222.04 356.179 222.68 357.267 223.128C358.387 223.576 359.587 223.8 360.867 223.8ZM393.54 231.432C391.332 231.432 389.172 231.176 387.06 230.664C384.98 230.152 383.3 229.512 382.02 228.744L384.756 222.504C385.972 223.24 387.396 223.832 389.028 224.28C390.66 224.696 392.26 224.904 393.828 224.904C395.364 224.904 396.42 224.744 396.996 224.424C397.604 224.104 397.908 223.672 397.908 223.128C397.908 222.616 397.62 222.248 397.044 222.024C396.5 221.768 395.764 221.576 394.836 221.448C393.94 221.32 392.948 221.176 391.86 221.016C390.772 220.856 389.668 220.648 388.548 220.392C387.46 220.104 386.452 219.688 385.524 219.144C384.628 218.568 383.908 217.8 383.364 216.84C382.82 215.88 382.548 214.664 382.548 213.192C382.548 211.528 383.028 210.056 383.988 208.776C384.98 207.464 386.42 206.44 388.308 205.704C390.196 204.936 392.5 204.552 395.22 204.552C397.044 204.552 398.884 204.744 400.74 205.128C402.628 205.48 404.212 206.024 405.492 206.76L402.756 212.952C401.476 212.216 400.196 211.72 398.916 211.464C397.636 211.176 396.42 211.032 395.268 211.032C393.732 211.032 392.644 211.208 392.004 211.56C391.396 211.912 391.092 212.344 391.092 212.856C391.092 213.368 391.364 213.768 391.908 214.056C392.452 214.312 393.172 214.52 394.068 214.68C394.996 214.808 396.004 214.952 397.092 215.112C398.18 215.24 399.268 215.448 400.356 215.736C401.476 216.024 402.484 216.456 403.38 217.032C404.308 217.576 405.044 218.328 405.588 219.288C406.132 220.216 406.404 221.416 406.404 222.888C406.404 224.488 405.908 225.928 404.916 227.208C403.956 228.488 402.516 229.512 400.596 230.28C398.708 231.048 396.356 231.432 393.54 231.432ZM444.222 204.552C446.238 204.552 448.03 204.968 449.598 205.8C451.198 206.6 452.446 207.848 453.342 209.544C454.27 211.24 454.734 213.432 454.734 216.12V231H445.614V217.608C445.614 215.752 445.262 214.408 444.558 213.576C443.854 212.712 442.894 212.28 441.678 212.28C440.814 212.28 440.03 212.488 439.326 212.904C438.622 213.32 438.078 213.96 437.694 214.824C437.31 215.656 437.118 216.744 437.118 218.088V231H427.998V217.608C427.998 215.752 427.646 214.408 426.942 213.576C426.27 212.712 425.31 212.28 424.062 212.28C423.166 212.28 422.366 212.488 421.662 212.904C420.99 213.32 420.446 213.96 420.03 214.824C419.646 215.656 419.454 216.744 419.454 218.088V231H410.334V204.984H419.022V212.232L417.294 210.168C418.254 208.312 419.566 206.92 421.23 205.992C422.894 205.032 424.75 204.552 426.798 204.552C429.134 204.552 431.182 205.16 432.942 206.376C434.734 207.56 435.934 209.416 436.542 211.944L433.566 211.32C434.494 209.208 435.886 207.56 437.742 206.376C439.63 205.16 441.79 204.552 444.222 204.552ZM476.379 231V226.152L475.755 224.952V216.024C475.755 214.584 475.307 213.48 474.411 212.712C473.547 211.912 472.155 211.512 470.234 211.512C468.987 211.512 467.723 211.72 466.443 212.136C465.163 212.52 464.075 213.064 463.179 213.768L460.107 207.576C461.579 206.616 463.339 205.88 465.387 205.368C467.467 204.824 469.531 204.552 471.579 204.552C475.803 204.552 479.067 205.528 481.371 207.48C483.707 209.4 484.875 212.424 484.875 216.552V231H476.379ZM468.699 231.432C466.619 231.432 464.859 231.08 463.419 230.376C461.979 229.672 460.875 228.712 460.107 227.496C459.371 226.28 459.003 224.92 459.003 223.416C459.003 221.816 459.403 220.44 460.203 219.288C461.035 218.104 462.299 217.208 463.995 216.6C465.691 215.96 467.883 215.64 470.571 215.64H476.715V220.392H471.819C470.347 220.392 469.307 220.632 468.699 221.112C468.123 221.592 467.835 222.232 467.835 223.032C467.835 223.832 468.139 224.472 468.747 224.952C469.355 225.432 470.187 225.672 471.243 225.672C472.235 225.672 473.131 225.432 473.931 224.952C474.763 224.44 475.371 223.672 475.755 222.648L477.003 226.008C476.523 227.8 475.579 229.16 474.171 230.088C472.795 230.984 470.971 231.432 468.699 231.432ZM507.575 204.552C509.591 204.552 511.415 204.968 513.047 205.8C514.679 206.6 515.959 207.848 516.887 209.544C517.847 211.24 518.327 213.432 518.327 216.12V231H509.207V217.608C509.207 215.752 508.823 214.408 508.055 213.576C507.319 212.712 506.279 212.28 504.935 212.28C503.975 212.28 503.095 212.504 502.295 212.952C501.495 213.368 500.871 214.024 500.423 214.92C499.975 215.816 499.751 216.984 499.751 218.424V231H490.631V204.984H499.319V212.376L497.639 210.216C498.631 208.328 499.991 206.92 501.719 205.992C503.447 205.032 505.399 204.552 507.575 204.552Z" fill="#6FFF00"/>
</g>
<g id="Group 5">
<rect id="Rectangle 1" x="30" width="553" height="10.87" fill="#73263F"/>
<g id="Group 3">
<rect id="Rectangle 4" x="593" y="231" width="10" height="230.286" transform="rotate(180 593 231)" fill="#73263F"/>
<rect id="Rectangle 5" x="593" y="231.43" width="50" height="10.873" transform="rotate(180 593 231.43)" fill="#73263F"/>
<rect id="Rectangle 6" x="593" y="10.873" width="30" height="10.873" transform="rotate(180 593 10.873)" fill="#73263F"/>
</g>
<g id="Group 4">
<rect id="Rectangle 4_2" x="-1.14441e-05" y="0.429991" width="10" height="230.286" fill="#73263F"/>
<rect id="Rectangle 5_2" x="-1.14441e-05" y="-6.19888e-06" width="30" height="10.873" fill="#73263F"/>
<rect id="Rectangle 6_2" x="-1.14441e-05" y="220.557" width="130" height="10.873" fill="#73263F"/>
</g>
</g>
</svg>
