<svg width="24" height="24" viewBox="0 0 24 24" fill="none" xmlns="http://www.w3.org/2000/svg">
<g clip-path="url(#clip0_17_3)">
<path d="M20.9972 17.9966C20.4392 18.0131 19.9233 18.1781 19.4853 18.454L16.1675 15.2221C16.8184 14.4018 17.2294 13.364 17.2774 12.2332L19.6323 11.9978C19.9698 12.8316 20.7722 13.409 21.7096 13.409C22.9441 13.409 23.9445 12.4087 23.9445 11.1744C23.9445 9.94014 22.9441 8.93982 21.7096 8.93982C20.5862 8.93982 19.6578 9.76767 19.4988 10.846L17.1124 11.0379C16.7764 9.33425 15.653 7.94851 14.1456 7.25714L14.6076 5.99888H14.9976C16.646 5.98688 17.9764 4.64913 17.9764 2.99944C17.9764 1.34225 16.634 0 14.9766 0C13.3192 0 11.9768 1.34225 11.9768 2.99944C11.9768 4.11223 12.5827 5.08405 13.4827 5.60145L13.0777 6.88371C12.7372 6.80272 12.3472 6.75773 11.9468 6.75773C10.7018 6.75773 9.5619 7.20165 8.67546 7.94101L4.18474 3.43586C4.39622 3.09992 4.52222 2.6905 4.52222 2.25108C4.52222 1.00931 3.51428 0.00149972 2.27236 0.00149972C1.03044 0.00149972 0.0224986 1.00931 0.0224986 2.25108C0.0224986 3.48535 1.01694 4.48866 2.24836 4.50066C2.66983 4.49916 3.06431 4.38218 3.39879 4.17972L7.88801 8.68487C7.17705 9.56671 6.74808 10.7005 6.74808 11.9363C6.74808 11.9588 6.74808 11.9813 6.74808 12.0037C6.74808 12.0907 6.74808 12.1657 6.74808 12.2407L5.75814 12.4057C5.28867 11.3259 4.22974 10.585 2.99981 10.585C1.34242 10.585 0 11.9273 0 13.5845C0 15.2416 1.34242 16.5839 2.99981 16.5839C4.65721 16.5839 5.99962 15.2416 5.99962 13.5845C5.99962 13.5545 5.99962 13.526 5.99812 13.496L6.94307 13.3505C7.30604 14.6148 8.09499 15.6571 9.14193 16.3379L8.30798 18.1196C8.0665 18.0461 7.78751 18.0026 7.49953 17.9996C7.49053 17.9996 7.48153 17.9996 7.47403 17.9996C5.81664 17.9996 4.47422 19.3419 4.47422 20.9991C4.47422 22.6563 5.81664 23.9985 7.47403 23.9985C9.13143 23.9985 10.4738 22.6563 10.4738 20.9991C10.4738 20.0392 10.0224 19.1829 9.32042 18.634L10.1694 16.9048C10.7153 17.1238 11.3498 17.2513 12.0127 17.2513C13.2832 17.2513 14.4441 16.7849 15.3365 16.0155L18.6003 19.2009C18.2254 19.6958 18.0004 20.3227 18.0004 21.0006C18.0004 22.6578 19.3428 24 21.0002 24C22.6576 24 24 22.6578 24 21.0006C24 19.3434 22.6576 18.0011 21.0002 18.0011L20.9972 17.9966ZM7.49803 22.4958C6.67008 22.4958 5.99812 21.8239 5.99812 20.9961C5.99812 20.1682 6.67008 19.4963 7.49803 19.4963C8.32598 19.4963 8.99794 20.1682 8.99794 20.9961C8.99794 21.8239 8.32598 22.4958 7.49803 22.4958ZM11.9977 15.747C9.92638 15.747 8.24798 14.0689 8.24798 11.9978C8.24798 9.92664 9.92638 8.24845 11.9977 8.24845C14.0691 8.24845 15.7475 9.92664 15.7475 11.9978C15.7475 14.0689 14.0691 15.747 11.9977 15.747Z" fill="#DCDDDE"/>
</g>
<defs>
<clipPath id="clip0_17_3">
<rect width="24" height="24" fill="white"/>
</clipPath>
</defs>
</svg>
